
<svg xmlns="http://www.w3.org/2000/svg" width="57.688" height="15" viewBox="0 0 57.688 15">
  <metadata><?xpacket begin="﻿" id="W5M0MpCehiHzreSzNTczkc9d"?>
<x:xmpmeta xmlns:x="adobe:ns:meta/" x:xmptk="Adobe XMP Core 5.6-c138 79.159824, 2016/09/14-01:09:01        ">
   <rdf:RDF xmlns:rdf="http://www.w3.org/1999/02/22-rdf-syntax-ns#">
      <rdf:Description rdf:about=""/>
   </rdf:RDF>
</x:xmpmeta>
                                                                                                    
                                                                                                    
                                                                                                    
                                                                                                    
                                                                                                    
                                                                                                    
                                                                                                    
                                                                                                    
                                                                                                    
                                                                                                    
                                                                                                    
                                                                                                    
                                                                                                    
                                                                                                    
                                                                                                    
                                                                                                    
                                                                                                    
                                                                                                    
                                                                                                    
                                                                                                    
                           
<?xpacket end="w"?></metadata>
<defs>
    <style>
      .cls-1 {
        fill: #fff;
      }
    </style>
  </defs>
  <path class="cls-1" d="M170.266,588.419h-4.848a0.222,0.222,0,0,0-.226.218v2.279a0.222,0.222,0,0,0,.226.218h1.892v2.832a5.958,5.958,0,0,1-1.6.139c-1.385,0-3.32-.487-3.32-4.578s2.015-4.63,3.906-4.63a7.957,7.957,0,0,1,2.792.411,0.225,0.225,0,0,0,.271-0.214l0.541-2.2a0.2,0.2,0,0,0-.087-0.17c-0.182-.125-1.294-0.723-4.1-0.723-3.236,0-6.556,1.324-6.556,7.688s3.8,7.313,7,7.313a8.108,8.108,0,0,0,4.261-1.09,0.184,0.184,0,0,0,.074-0.165v-7.108A0.223,0.223,0,0,0,170.266,588.419Zm24.984-5.657a0.222,0.222,0,0,0-.225-0.22H192.3a0.223,0.223,0,0,0-.226.22v5.072h-4.255v-5.072a0.222,0.222,0,0,0-.225-0.22h-2.729a0.223,0.223,0,0,0-.226.22V596.5a0.223,0.223,0,0,0,.226.22h2.729a0.222,0.222,0,0,0,.225-0.22v-5.874h4.255l-0.007,5.874a0.223,0.223,0,0,0,.226.22h2.736a0.222,0.222,0,0,0,.225-0.22V582.762Zm-19.833,1.8a1.761,1.761,0,1,0-1.76,1.71A1.734,1.734,0,0,0,175.417,584.564Zm-0.195,9.034v-6.339A0.222,0.222,0,0,0,175,587.04h-2.721a0.254,0.254,0,0,0-.236.244v9.082a0.331,0.331,0,0,0,.4.347h2.452a0.29,0.29,0,0,0,.335-0.351V593.6Zm30.4-6.538h-2.709a0.223,0.223,0,0,0-.225.22v6.734a3.145,3.145,0,0,1-1.665.484c-0.977,0-1.236-.426-1.236-1.345V587.28a0.223,0.223,0,0,0-.225-0.22h-2.749a0.223,0.223,0,0,0-.226.22V593.6c0,2.731,1.583,3.4,3.761,3.4a6.509,6.509,0,0,0,3.227-.95,5.321,5.321,0,0,0,.1.56,0.24,0.24,0,0,0,.2.119l1.749-.008a0.223,0.223,0,0,0,.226-0.219V587.28A0.223,0.223,0,0,0,205.624,587.06Zm7.4-.308a5.243,5.243,0,0,0-2.585.66v-4.65a0.222,0.222,0,0,0-.225-0.22H207.48a0.223,0.223,0,0,0-.226.22V596.5a0.223,0.223,0,0,0,.226.22h1.9a0.228,0.228,0,0,0,.2-0.117,4.166,4.166,0,0,0,.116-0.633,5.008,5.008,0,0,0,3.238,1.02c2.487,0,3.914-1.213,3.914-5.447S214.567,586.752,213.027,586.752Zm-1.068,7.738a3.339,3.339,0,0,1-1.577-.438V589.7a3.709,3.709,0,0,1,1.4-.436c0.975-.084,1.915.2,1.915,2.436C213.7,594.062,213.273,594.528,211.959,594.49Zm-28.892-7.451h-2.048l0-2.6a0.14,0.14,0,0,0-.171-0.148h-2.79a0.139,0.139,0,0,0-.167.146v2.688s-1.4.324-1.493,0.351a0.218,0.218,0,0,0-.163.209v1.689a0.222,0.222,0,0,0,.226.219h1.43v4.064c0,3.017,2.2,3.314,3.688,3.314a6.484,6.484,0,0,0,1.625-.257,0.2,0.2,0,0,0,.128-0.2l0-1.858a0.226,0.226,0,0,0-.226-0.219c-0.12,0-.425.046-0.739,0.046-1.006,0-1.347-.449-1.347-1.031v-3.862h2.048a0.222,0.222,0,0,0,.226-0.219v-2.116A0.222,0.222,0,0,0,183.067,587.039Z" transform="translate(-159.156 -582)"/>
</svg>