
<svg xmlns="http://www.w3.org/2000/svg" width="86" height="21" viewBox="0 0 86 21">
  <metadata><?xpacket begin="﻿" id="W5M0MpCehiHzreSzNTczkc9d"?>
<x:xmpmeta xmlns:x="adobe:ns:meta/" x:xmptk="Adobe XMP Core 5.6-c138 79.159824, 2016/09/14-01:09:01        ">
   <rdf:RDF xmlns:rdf="http://www.w3.org/1999/02/22-rdf-syntax-ns#">
      <rdf:Description rdf:about=""/>
   </rdf:RDF>
</x:xmpmeta>
                                                                                                    
                                                                                                    
                                                                                                    
                                                                                                    
                                                                                                    
                                                                                                    
                                                                                                    
                                                                                                    
                                                                                                    
                                                                                                    
                                                                                                    
                                                                                                    
                                                                                                    
                                                                                                    
                                                                                                    
                                                                                                    
                                                                                                    
                                                                                                    
                                                                                                    
                                                                                                    
                           
<?xpacket end="w"?></metadata>
<defs>
    <style>
      .cls-1 {
        fill: #fff;
        fill-rule: evenodd;
      }
    </style>
  </defs>
  <path class="cls-1" d="M332.842,595.946a0.371,0.371,0,0,0,.373-0.394,0.412,0.412,0,0,0-.512-0.413H332.15V596.6h0.208v-0.637h0.257l0.006,0.008,0.4,0.629h0.222l-0.428-.651ZM332.6,595.8h-0.242V595.3h0.308c0.159,0,.339.027,0.339,0.236C333.005,595.78,332.823,595.8,332.6,595.8Zm0.025-1.31A1.383,1.383,0,1,0,334,595.872,1.365,1.365,0,0,0,332.625,594.489Zm0,2.585a1.2,1.2,0,1,1,1.173-1.2A1.173,1.173,0,0,1,332.625,597.074ZM248,582.106h3.22v11.8h5.961v2.989H248V582.106Zm10.6,4.762h3.094V596.89H258.6V586.868Zm1.547-4.982a1.806,1.806,0,1,1-1.794,1.807,1.8,1.8,0,0,1,1.794-1.807m14.484,0.22h3.092v8.838l3.506-4.08h3.792l-4.058,4.639,3.973,5.391h-3.888l-3.285-4.954h-0.04v4.954h-3.092V582.106Zm-11.225,4.764h2.97v1.369h0.042a3.247,3.247,0,0,1,2.929-1.618c3.136,0,3.713,2.076,3.713,4.774v5.5h-3.094v-4.873c0-1.162-.021-2.656-1.61-2.656-1.609,0-1.855,1.266-1.855,2.573v4.956h-3.095V586.87Zm28.128,3.844a1.861,1.861,0,0,0-1.9-1.909,2.069,2.069,0,0,0-2.185,1.909h4.085Zm2.62,4.44a5.435,5.435,0,0,1-4.229,1.994,5.3,5.3,0,1,1,0-10.586c2.889,0,4.7,2.076,4.7,5.292v0.976h-7.179a2.315,2.315,0,0,0,2.331,1.951,2.634,2.634,0,0,0,2.207-1.224Zm6.92-5.863a2.555,2.555,0,1,0,2.476,2.553,2.354,2.354,0,0,0-2.476-2.553m5.325,7.6H303.55v-1.329h-0.04a3.885,3.885,0,0,1-3.074,1.578c-2.972,0-4.932-2.158-4.932-5.209,0-2.8,1.734-5.376,4.581-5.376a3.725,3.725,0,0,1,3.177,1.328h0.04v-5.774h3.1v14.782ZM328.821,579H311.033a1.528,1.528,0,0,0-1.54,1.514v17.971a1.528,1.528,0,0,0,1.54,1.515h17.788a1.531,1.531,0,0,0,1.544-1.515V580.514A1.53,1.53,0,0,0,328.821,579Zm-13.137,17.894h-3.1V586.873h3.1v10.021ZM314.136,585.5a1.806,1.806,0,1,1,1.794-1.806A1.8,1.8,0,0,1,314.136,585.5Zm13.143,11.391h-3.095v-4.873c0-1.162-.02-2.657-1.609-2.657-1.611,0-1.857,1.266-1.857,2.574v4.956h-3.092V586.873h2.968v1.37h0.042a3.251,3.251,0,0,1,2.93-1.619c3.134,0,3.713,2.075,3.713,4.774v5.5Z" transform="translate(-248 -579)"/>
</svg>
