<?xml version="1.0" encoding="utf-8"?>
<svg version="1.1" id="Layer_1" xmlns="http://www.w3.org/2000/svg" xmlns:xlink="http://www.w3.org/1999/xlink" x="0px" y="0px"
	 viewBox="0 0 320 383.35" style="enable-background:new 0 0 320 383.35;" xml:space="preserve">
<style type="text/css">
	.st0{fill:#FFFFFF;}
</style>
<path class="st0" d="M247.03,383.35c-58.02,0-116.04,0-174.06,0c-0.82-0.23-1.63-0.55-2.47-0.69c-23.99-3.99-41.1-16.9-50-39.57
	c-2.87-7.31-3.81-15.36-5.74-23.52c-11.77-3.19-14.76-7.12-14.76-20.4c0-11.1,0-22.21,0-33.31c0-24.33-0.02-48.66,0.01-72.98
	c0.01-7.81,3.6-13.55,10.02-16c1.82-0.69,3.79-1,5.91-1.54c0-1.55,0-3.03,0-4.51c0-35.43-0.05-70.86,0.01-106.29
	c0.06-36.89,27.53-64.39,64.43-64.5c29.38-0.08,58.76,0.04,88.14-0.05c9.39-0.03,17.28,3.18,23.9,9.79
	c33.93,33.89,67.88,67.77,101.84,101.63c6.63,6.61,9.88,14.49,9.8,23.86c-0.11,12.1-0.03,24.2-0.03,36.3c0,1.33,0,2.66,0,3.9
	c10.55,1.92,15.87,7.26,15.89,16.28c0.09,37.3,0.09,74.6,0,111.91c-0.02,8.06-5.16,13.85-13.08,15.49
	c-0.85,0.18-1.69,0.39-2.68,0.62c-0.06,1.14-0.13,2.25-0.19,3.36c-1.3,25.6-17.38,47.62-41.44,56.26
	C257.55,381.19,252.21,382.05,247.03,383.35z M48.21,175.52c74.78,0,149.1,0,223.5,0c0-10.66,0-21.07,0-31.75c-1.61,0-2.97,0-4.32,0
	c-14,0-28.01,0.02-42.01,0c-37.95-0.05-65.33-27.31-65.38-65.08c-0.02-14.1,0-28.2,0-42.3c0-1.34,0-2.67,0-4.15
	c-1.13-0.09-1.85-0.2-2.57-0.2c-25.88,0-51.76-0.04-77.64,0.07c-3.21,0.01-6.52,0.45-9.6,1.34C56.4,37.43,48.1,49.01,48.06,64.53
	c-0.09,35.93-0.03,71.86-0.03,107.8C48.03,173.31,48.14,174.29,48.21,175.52z M271.58,319.78c-74.58,0-148.9,0-223.49,0
	c0.13,10.33,3.88,18.64,11.8,24.94c6.46,5.13,14,6.68,22.12,6.67c52-0.07,104.01-0.04,156.01-0.04c1.87,0,3.75-0.04,5.62-0.17
	C259.76,350.01,273.11,335.11,271.58,319.78z M127.93,247.25c0,11.84,0,23.68,0,35.52c0,0.12,0,0.25,0,0.37
	c0.18,6.06,3.02,9.04,8.99,9.09c7.24,0.05,14.51,0.24,21.72-0.25c13.21-0.88,23.53-11.76,23.75-24.92c0.21-12.46,0.23-24.93,0-37.38
	c-0.28-14.94-12.23-26.56-27.2-26.76c-5.74-0.08-11.49-0.03-17.23-0.02c-7.12,0.02-9.99,2.85-10.01,9.96
	C127.9,224.32,127.93,235.79,127.93,247.25z M79.89,263.53c2.9,0,5.38,0.08,7.84-0.01c15.17-0.54,27.65-12.18,28.8-26.82
	c1.32-16.82-8.32-30.44-24.14-33.05c-6.34-1.05-12.94-0.66-19.42-0.71c-5.95-0.05-8.96,3.05-8.99,9.03
	c-0.05,8.73-0.01,17.45-0.01,26.18c0,15.09-0.03,30.17,0.02,45.26c0.02,5.26,3.05,8.65,7.67,8.8c4.78,0.16,8.12-3.04,8.21-8.18
	C79.98,277.32,79.89,270.62,79.89,263.53z M219.42,218.77c9.58,0,18.69,0.04,27.81-0.02c5.2-0.04,8.67-3.17,8.77-7.73
	c0.11-4.68-3.5-8.09-8.79-8.12c-11.75-0.05-23.5-0.06-35.25,0c-5.55,0.03-8.64,3-8.66,8.57c-0.07,24.07-0.07,48.15,0,72.22
	c0.01,5.28,3.2,8.5,7.92,8.5c4.64-0.01,7.93-3.39,7.99-8.51c0.09-7.98,0.03-15.97,0.03-23.95c0-1.31,0-2.63,0-4.23
	c6.41,0,12.26,0.05,18.12-0.01c5.58-0.06,8.95-3.05,8.98-7.85c0.03-4.92-3.47-8-9.22-8.03c-5.84-0.04-11.68-0.01-17.69-0.01
	C219.42,232.56,219.42,225.89,219.42,218.77z M248.42,112.18c-19.13-19.06-37.71-37.56-56.25-56.03c0,8.42-0.23,17.23,0.05,26.03
	c0.46,14.17,10.13,26.36,24.12,28.52C226.75,112.29,237.49,111.75,248.42,112.18z"/>
<path class="st0" d="M144.18,276.25c0-19.26,0-38.04,0-57.74c5.04,0.37,10.06,0.11,14.75,1.25c4.56,1.11,7.29,4.95,7.35,9.77
	c0.17,12.45,0.21,24.91-0.01,37.36c-0.09,5.25-3.97,8.91-9.44,9.3C152.77,276.48,148.66,276.25,144.18,276.25z"/>
<path class="st0" d="M80.21,219c6.89-0.6,13.53-0.63,17.92,5.69c3.57,5.15,3.73,10.83,0.52,16.22c-4.18,7.03-11.09,7.08-18.44,6.56
	C80.21,237.97,80.21,228.6,80.21,219z"/>
</svg>
